<?xml version="1.0" encoding="utf-8"?>
<!-- Svg Vector Icons : http://www.onlinewebfonts.com/icon -->
<!DOCTYPE svg PUBLIC "-//W3C//DTD SVG 1.1//EN" "http://www.w3.org/Graphics/SVG/1.1/DTD/svg11.dtd">
<svg version="1.1" xmlns="http://www.w3.org/2000/svg" xmlns:xlink="http://www.w3.org/1999/xlink" x="0px" y="0px" viewBox="0 0 256 256" enable-background="new 0 0 256 256" xml:space="preserve">
<metadata> Svg Vector Icons : http://www.onlinewebfonts.com/icon </metadata>
<g><g><g><path fill="#000000" d="M44.5,37c-3.4,0.8-8.3,3.7-10.7,6.3c-1.2,1.3-3,4-3.9,6L28.1,53l-0.2,58.4L27.8,170l-3.5,4.4c-4.8,6.3-10.4,14.6-12.5,18.8c-3.4,6.9-2.1,13.7,3.4,19.1c1.4,1.4,3.8,3.1,5.2,3.9c6.2,3.3-0.2,3.2,107.5,3.2c107.7,0,101.4,0.2,107.5-3.2c9.4-5.1,12.9-14.4,8.7-23c-2.1-4.2-6.5-10.9-11.9-18.1l-4-5.3l-0.1-58.4L228,53l-1.7-3.7c-2.4-5.1-5.4-8.2-10.4-10.7l-4.1-2l-82.5-0.1C80.5,36.5,45.7,36.7,44.5,37z M210.5,45.8c3,0.9,7.5,5.4,8.4,8.4c0.5,1.7,0.7,15.7,0.7,57.6v55.3h-91.5H36.5v-55.3c0-41.9,0.2-55.9,0.7-57.6c0.8-2.8,5.4-7.5,8.1-8.3C48.1,44.9,207.5,44.9,210.5,45.8z M226.2,181.5c8.7,11.7,11.7,17.2,11.1,20.3c-0.4,2.5-3.1,5.4-6.5,7.2l-2.8,1.5h-100h-100l-2.8-1.5c-3.4-1.8-6-4.7-6.5-7.2c-0.6-3.1,2.3-8.6,11.1-20.3l4.2-5.6h94h94L226.2,181.5z"/><path fill="#000000" d="M46.6,55.2l-1.4,1.3v49.6v49.6l1.4,1.3l1.3,1.4h80.1h80.1l1.3-1.4l1.4-1.3v-49.6V56.5l-1.4-1.3l-1.3-1.4h-80.1H47.9L46.6,55.2z M202.1,106.1v43.6h-74.1H54v-43.6V62.6h74.1h74.1V106.1z"/><path fill="#000000" d="M151.2,72.6c-0.9,0.9-1.4,1.9-1.4,3.1c0,1.5,0.8,2.6,5.6,7.4c4.8,4.8,5.9,5.6,7.4,5.6c2.4,0,4.5-2.1,4.5-4.5c0-1.5-0.8-2.6-5.6-7.4c-4.8-4.8-5.9-5.6-7.4-5.6C153.1,71.3,152.1,71.8,151.2,72.6z"/><path fill="#000000" d="M177.3,72.6c-0.9,0.9-1.4,1.9-1.4,3.1c0,1.5,0.8,2.6,5.6,7.4c4.8,4.8,5.9,5.6,7.4,5.6c2.4,0,4.5-2.1,4.5-4.5c0-1.5-0.8-2.6-5.6-7.4c-4.8-4.8-5.9-5.6-7.4-5.6C179.3,71.3,178.2,71.8,177.3,72.6z"/><path fill="#000000" d="M168.6,90.1c-0.9,0.9-1.4,1.9-1.4,3.1c0,1.6,1.1,2.9,10,11.7c8.8,8.9,10.1,10,11.7,10c1.2,0,2.2-0.5,3.1-1.4c0.9-0.9,1.4-1.9,1.4-3.1c0-1.6-1.1-2.9-10-11.7c-8.8-8.9-10.1-10-11.7-10C170.5,88.7,169.5,89.2,168.6,90.1z"/><path fill="#000000" d="M90.2,194.7c-0.9,0.8-1.4,2-1.4,3c0,1,0.5,2.2,1.4,3l1.3,1.4h36.6h36.6l1.3-1.4c1.8-1.7,1.8-4.2,0-6l-1.3-1.4h-36.6H91.5L90.2,194.7z"/></g></g></g>
</svg>